<svg width="279" height="59" viewBox="0 0 279 59" fill="none" xmlns="http://www.w3.org/2000/svg">
<path d="M0.306152 0.763184H8.79783V56.6918H0.306152V0.763184Z" fill="white"/>
<path d="M121.32 16.1098H130.532V22.3353C133.123 18.5668 136.848 15.2632 143.091 15.2632C152.154 15.2632 157.402 21.414 157.402 30.7854V56.6834H148.19V33.6325C148.19 27.3323 145.065 23.7215 139.587 23.7215C134.11 23.7215 130.524 27.49 130.524 33.7902V56.6918H121.312V16.1098H121.32Z" fill="white"/>
<path d="M168.017 43.1547V17.3345H177.209V40.39C177.209 46.6915 180.328 50.2283 185.795 50.2283C191.261 50.2283 194.84 46.542 194.84 40.2406V17.3345H204.106V57.9162H194.84V51.6147C192.254 55.4587 188.536 58.763 182.306 58.763C173.261 58.763 168.025 52.611 168.025 43.163L168.017 43.1547Z" fill="white"/>
<path d="M214.721 16.1015H224.316V22.2523C227.014 18.6415 230.664 15.2632 237.081 15.2632C243.112 15.2632 247.396 18.1103 249.614 22.41C252.947 18.1103 257.385 15.2632 263.733 15.2632C272.857 15.2632 278.408 20.8744 278.408 30.7854V56.6835H268.813V33.6325C268.813 27.1746 265.721 23.7216 260.323 23.7216C254.926 23.7216 251.362 27.2576 251.362 33.7903V56.6918H241.767V33.5578C241.767 27.2576 238.597 23.7216 233.277 23.7216C227.957 23.7216 224.316 27.5648 224.316 33.7902V56.6918H214.721V16.1015Z" fill="white"/>
<path d="M42.763 54.6203C32.2149 54.6203 23.6567 46.741 23.6567 37.0131C23.6567 27.2852 32.2068 19.406 42.763 19.406" stroke="#1C75BC" stroke-width="8"/>
<path d="M87.3472 19.406C96.7233 19.406 104.331 27.2852 104.331 37.0131C104.331 46.7411 96.7305 54.6203 87.3472 54.6203" stroke="#F7941D" stroke-width="8"/>
<path d="M42.7642 19.406C60.0249 20.4049 65.0548 37.0131 65.0548 37.0131C65.0548 37.0131 70.3141 54.6203 87.3455 54.6203" stroke="#1C75BC" stroke-width="8"/>
<path d="M87.3455 19.406C69.5267 19.406 65.0548 37.0131 65.0548 37.0131C65.0548 37.0131 59.7956 54.6203 42.7642 54.6203" stroke="#27AAE1" stroke-width="8"/>
</svg>
