<svg width="140" height="31" viewBox="0 0 140 31" fill="none" xmlns="http://www.w3.org/2000/svg">
<path d="M0.306152 0.763184H4.55198V28.7274H0.306152V0.763184Z" fill="#1C75BC"/>
<path d="M60.8132 8.43651H65.419V11.5493C66.7144 9.66501 68.5772 8.01318 71.6985 8.01318C76.2302 8.01318 78.8539 11.0886 78.8539 15.7743V28.7233H74.2481V17.1978C74.2481 14.0477 72.6854 12.2424 69.9466 12.2424C67.2078 12.2424 65.4149 14.1266 65.4149 17.2767V28.7274H60.8091V8.43651H60.8132Z" fill="#1C75BC"/>
<path d="M84.1611 21.9589V9.04883H88.7575V20.5766C88.7575 23.7273 90.317 25.4957 93.0502 25.4957C95.7833 25.4957 97.5726 23.6526 97.5726 20.5018V9.04883H102.206V29.3396H97.5726V26.1889C96.2799 28.1109 94.4209 29.7631 91.306 29.7631C86.7835 29.7631 84.1653 26.6871 84.1653 21.963L84.1611 21.9589Z" fill="#1C75BC"/>
<path d="M107.513 8.43237H112.311V11.5077C113.66 9.70236 115.485 8.01318 118.693 8.01318C121.709 8.01318 123.851 9.43674 124.96 11.5866C126.626 9.43674 128.845 8.01318 132.019 8.01318C136.581 8.01318 139.357 10.8188 139.357 15.7743V28.7233H134.559V17.1978C134.559 13.9689 133.013 12.2424 130.314 12.2424C127.616 12.2424 125.834 14.0104 125.834 17.2767V28.7274H121.036V17.1605C121.036 14.0104 119.451 12.2424 116.791 12.2424C114.131 12.2424 112.311 14.164 112.311 17.2767V28.7274H107.513V8.43237Z" fill="#1C75BC"/>
<path d="M21.5341 27.6916C16.26 27.6916 11.981 23.752 11.981 18.888C11.981 14.0241 16.256 10.0845 21.5341 10.0845" stroke="#1C75BC" stroke-width="5"/>
<path d="M43.8267 10.0845C48.5147 10.0845 52.3183 14.0241 52.3183 18.888C52.3183 23.752 48.5183 27.6916 43.8267 27.6916" stroke="#F7941D" stroke-width="5"/>
<path d="M21.5352 10.0845C30.1655 10.5839 32.6805 18.888 32.6805 18.888C32.6805 18.888 35.3101 27.6916 43.8258 27.6916" stroke="#1C75BC" stroke-width="5"/>
<path d="M43.8258 10.0845C34.9164 10.0845 32.6805 18.888 32.6805 18.888C32.6805 18.888 30.0508 27.6916 21.5352 27.6916" stroke="#27AAE1" stroke-width="5"/>
</svg>
