<svg width="35" height="35" viewBox="0 0 35 35" fill="none" xmlns="http://www.w3.org/2000/svg">
<g id="CurrencyEth">
<path id="Vector" d="M30.3912 16.8247L18.36 1.51215C18.2576 1.38193 18.1271 1.27664 17.9781 1.20425C17.8291 1.13185 17.6656 1.09424 17.5 1.09424C17.3344 1.09424 17.1709 1.13185 17.022 1.20425C16.873 1.27664 16.7424 1.38193 16.6401 1.51215L4.6088 16.8247C4.45757 17.0173 4.37537 17.2551 4.37537 17.5C4.37537 17.745 4.45757 17.9828 4.6088 18.1754L16.6401 33.4879C16.7424 33.6182 16.873 33.7234 17.022 33.7958C17.1709 33.8682 17.3344 33.9058 17.5 33.9058C17.6656 33.9058 17.8291 33.8682 17.9781 33.7958C18.1271 33.7234 18.2576 33.6182 18.36 33.4879L30.3912 18.1754C30.5425 17.9828 30.6247 17.745 30.6247 17.5C30.6247 17.2551 30.5425 17.0173 30.3912 16.8247ZM18.5938 5.34985L27.8113 17.0803L18.5938 21.2707V5.34985ZM16.4063 21.2707L7.18869 17.0803L16.4063 5.34985V21.2707ZM16.4063 23.6729V29.6502L9.10138 20.3534L16.4063 23.6729ZM18.5938 23.6729L25.8986 20.352L18.5938 29.6489V23.6729Z" fill="white"/>
</g>
</svg>
