<svg width="19" height="19" viewBox="0 0 19 19" fill="none" xmlns="http://www.w3.org/2000/svg">
<g id="Done_ring_round">
<path id="Line 1" d="M7.12492 7.91683L9.54969 9.73541C9.96816 10.0493 10.5578 9.98758 10.9023 9.59391L15.8333 3.9585" stroke="#33363F" stroke-width="2" stroke-linecap="round"/>
<path id="Ellipse 47" d="M16.625 9.5C16.625 10.9887 16.1587 12.4401 15.2915 13.6502C14.4244 14.8603 13.2 15.7683 11.7903 16.2469C10.3805 16.7254 8.85634 16.7504 7.43172 16.3182C6.0071 15.886 4.75363 15.0185 3.84736 13.8374C2.94108 12.6563 2.42752 11.221 2.37881 9.73312C2.33011 8.2452 2.74869 6.77939 3.57578 5.54156C4.40287 4.30374 5.59691 3.35607 6.99022 2.83167C8.38352 2.30727 9.90609 2.23247 11.3441 2.61778" stroke="#33363F" stroke-width="2" stroke-linecap="round"/>
</g>
</svg>
