<svg width="19" height="19" viewBox="0 0 19 19" fill="none" xmlns="http://www.w3.org/2000/svg">
<g id="Done_ring_round_fill">
<path id="Subtract" fill-rule="evenodd" clip-rule="evenodd" d="M9.5 16.625C13.435 16.625 16.625 13.435 16.625 9.5C16.625 8.12593 16.236 6.84271 15.5622 5.75443L10.0634 11.8643C9.37069 12.6339 8.20513 12.7476 7.37677 12.1263L4.94167 10.3C4.49984 9.96863 4.4103 9.34183 4.74167 8.9C5.07304 8.45817 5.69984 8.36863 6.14167 8.7L8.57677 10.5263L14.2667 4.20422C13.0042 3.0671 11.3329 2.375 9.5 2.375C5.56497 2.375 2.375 5.56497 2.375 9.5C2.375 13.435 5.56497 16.625 9.5 16.625Z" fill="#222222"/>
</g>
</svg>
