<svg width="40" height="41" viewBox="0 0 40 41" fill="none" xmlns="http://www.w3.org/2000/svg">
<path d="M39.5 20.5C39.5 9.4543 30.5457 0.5 19.5 0.5H0.5V21C0.5 31.7696 9.23045 40.5 20 40.5C30.7696 40.5 39.5 31.7696 39.5 21V20.5Z" stroke="url(#paint0_radial_797_36573)"/>
<path d="M30.5625 20.4998C30.5591 23.0813 29.612 25.5725 27.8994 27.5042C26.1868 29.4358 23.8269 30.6746 21.2644 30.9871C21.2073 30.9936 21.1496 30.9879 21.0949 30.9704C21.0402 30.9529 20.9898 30.924 20.9471 30.8856C20.9044 30.8472 20.8703 30.8002 20.8471 30.7477C20.8239 30.6951 20.8121 30.6383 20.8125 30.5809V22.9373H23.25C23.3613 22.9375 23.4716 22.9148 23.5738 22.8707C23.6761 22.8265 23.7682 22.7618 23.8444 22.6806C23.9206 22.5993 23.9793 22.5033 24.0168 22.3984C24.0543 22.2935 24.0698 22.1821 24.0625 22.0709C24.0445 21.862 23.9481 21.6676 23.7927 21.5269C23.6372 21.3861 23.4342 21.3094 23.2246 21.3123H20.8125V18.8748C20.8125 18.4438 20.9837 18.0305 21.2884 17.7257C21.5932 17.421 22.0065 17.2498 22.4375 17.2498H24.0625C24.1738 17.25 24.2841 17.2273 24.3863 17.1832C24.4886 17.139 24.5807 17.0743 24.6569 16.9931C24.7331 16.9118 24.7918 16.8158 24.8293 16.7109C24.8668 16.606 24.8823 16.4946 24.875 16.3834C24.857 16.1741 24.7603 15.9795 24.6044 15.8387C24.4485 15.6979 24.2451 15.6214 24.035 15.6248H22.4375C21.5755 15.6248 20.7488 15.9672 20.1394 16.5767C19.5299 17.1862 19.1875 18.0128 19.1875 18.8748V21.3123H16.75C16.6386 21.312 16.5283 21.3347 16.4261 21.3788C16.3238 21.423 16.2317 21.4877 16.1555 21.5689C16.0793 21.6502 16.0207 21.7462 15.9831 21.8511C15.9456 21.956 15.9301 22.0675 15.9375 22.1786C15.9554 22.3879 16.0521 22.5826 16.208 22.7234C16.3639 22.8642 16.5673 22.9406 16.7774 22.9373H19.1875V30.5829C19.1878 30.6402 19.176 30.697 19.1529 30.7494C19.1297 30.8019 19.0957 30.8488 19.0531 30.8872C19.0105 30.9256 18.9603 30.9545 18.9057 30.972C18.8512 30.9896 18.7935 30.9954 18.7365 30.9891C16.1054 30.6687 13.6904 29.3722 11.9697 27.3561C10.2489 25.3401 9.34776 22.7514 9.44456 20.1027C9.64769 14.6183 14.09 10.1597 19.5785 9.9464C20.9994 9.89136 22.4169 10.1235 23.7461 10.6289C25.0752 11.1343 26.2888 11.9025 27.3142 12.8877C28.3397 13.873 29.1558 15.0549 29.7139 16.3628C30.2721 17.6707 30.5607 19.0777 30.5625 20.4998Z" fill="#0155ED"/>
<defs>
<radialGradient id="paint0_radial_797_36573" cx="0" cy="0" r="1" gradientUnits="userSpaceOnUse" gradientTransform="translate(20 20.5) rotate(90) scale(20.5 20)">
<stop stop-color="#001AFF"/>
<stop offset="1" stop-color="#0019FF" stop-opacity="0.34"/>
</radialGradient>
</defs>
</svg>
