<svg width="40" height="41" viewBox="0 0 40 41" fill="none" xmlns="http://www.w3.org/2000/svg">
<path d="M39.5 20.5C39.5 9.4543 30.5457 0.5 19.5 0.5H0.5V21C0.5 31.7696 9.23045 40.5 20 40.5C30.7696 40.5 39.5 31.7696 39.5 21V20.5Z" stroke="url(#paint0_radial_797_36577)"/>
<path d="M24.875 9.9375H15.125C13.6171 9.93911 12.1714 10.5388 11.1051 11.6051C10.0388 12.6714 9.43911 14.1171 9.4375 15.625V25.375C9.43911 26.8829 10.0388 28.3286 11.1051 29.3949C12.1714 30.4612 13.6171 31.0609 15.125 31.0625H24.875C26.3829 31.0609 27.8286 30.4612 28.8949 29.3949C29.9612 28.3286 30.5609 26.8829 30.5625 25.375V15.625C30.5609 14.1171 29.9612 12.6714 28.8949 11.6051C27.8286 10.5388 26.3829 9.93911 24.875 9.9375ZM20 25.375C19.0358 25.375 18.0933 25.0891 17.2916 24.5534C16.4899 24.0177 15.8651 23.2564 15.4961 22.3656C15.1271 21.4748 15.0306 20.4946 15.2187 19.5489C15.4068 18.6033 15.8711 17.7346 16.5529 17.0529C17.2346 16.3711 18.1033 15.9068 19.0489 15.7187C19.9946 15.5306 20.9748 15.6271 21.8656 15.9961C22.7564 16.3651 23.5177 16.9899 24.0534 17.7916C24.5891 18.5933 24.875 19.5358 24.875 20.5C24.8737 21.7925 24.3596 23.0317 23.4457 23.9457C22.5317 24.8596 21.2925 25.3737 20 25.375ZM26.0938 15.625C25.8527 15.625 25.6171 15.5535 25.4166 15.4196C25.2162 15.2857 25.06 15.0953 24.9678 14.8726C24.8755 14.6499 24.8514 14.4049 24.8984 14.1685C24.9454 13.9321 25.0615 13.7149 25.232 13.5445C25.4024 13.374 25.6196 13.2579 25.856 13.2109C26.0924 13.1639 26.3374 13.188 26.5601 13.2803C26.7828 13.3725 26.9732 13.5287 27.1071 13.7291C27.241 13.9296 27.3125 14.1652 27.3125 14.4062C27.3125 14.7295 27.1841 15.0395 26.9555 15.268C26.727 15.4966 26.417 15.625 26.0938 15.625ZM23.25 20.5C23.25 21.1428 23.0594 21.7711 22.7023 22.3056C22.3452 22.8401 21.8376 23.2566 21.2437 23.5026C20.6499 23.7486 19.9964 23.813 19.366 23.6876C18.7355 23.5622 18.1564 23.2526 17.7019 22.7981C17.2474 22.3436 16.9378 21.7645 16.8124 21.134C16.687 20.5036 16.7514 19.8501 16.9974 19.2563C17.2434 18.6624 17.6599 18.1548 18.1944 17.7977C18.7289 17.4406 19.3572 17.25 20 17.25C20.862 17.25 21.6886 17.5924 22.2981 18.2019C22.9076 18.8114 23.25 19.638 23.25 20.5Z" fill="#0155ED"/>
<defs>
<radialGradient id="paint0_radial_797_36577" cx="0" cy="0" r="1" gradientUnits="userSpaceOnUse" gradientTransform="translate(20 20.5) rotate(90) scale(20.5 20)">
<stop stop-color="#0075FF"/>
<stop offset="1" stop-color="#0075FF" stop-opacity="0.57"/>
</radialGradient>
</defs>
</svg>
