<svg width="19" height="19" viewBox="0 0 19 19" fill="none" xmlns="http://www.w3.org/2000/svg">
<path d="M13.4518 2.80962C12.2451 2.08759 10.9289 1.72656 9.49939 1.72656C8.0711 1.72656 6.75365 2.08759 5.54645 2.80962C4.34107 3.53103 3.38523 4.51032 2.68138 5.74684C1.97631 6.98462 1.625 8.33435 1.625 9.79919C1.625 11.5577 2.12593 13.1389 3.12719 14.544C4.12845 15.9466 5.42167 16.9215 7.00806 17.4592C7.1922 17.4944 7.32909 17.4699 7.41752 17.3857C7.50657 17.3007 7.55078 17.197 7.55078 17.0711L7.54594 16.502C7.54231 16.1447 7.53988 15.8334 7.53988 15.5667L7.30487 15.6082C7.15464 15.6365 6.96444 15.6484 6.73548 15.6447C6.50713 15.6416 6.26908 15.6171 6.02315 15.5711C5.77905 15.5258 5.55069 15.4214 5.33868 15.2566C5.12669 15.0918 4.97646 14.8761 4.88742 14.6101L4.78445 14.3673C4.71661 14.2063 4.60879 14.0276 4.4622 13.8327C4.31501 13.6351 4.16661 13.5018 4.01639 13.4321L3.9437 13.3799C3.89647 13.3445 3.85285 13.303 3.81045 13.254C3.76987 13.2049 3.73957 13.1559 3.71959 13.1068C3.69899 13.0566 3.71535 13.017 3.76987 12.9855C3.82437 12.9527 3.92371 12.9383 4.06667 12.9383L4.27261 12.9697C4.4083 12.9974 4.5779 13.0817 4.7796 13.2214C4.98131 13.3622 5.14727 13.544 5.2763 13.7686C5.43379 14.0553 5.62337 14.2742 5.84567 14.4251C6.06797 14.5761 6.2921 14.6516 6.51803 14.6516C6.74214 14.6516 6.93779 14.6327 7.10194 14.5987C7.26549 14.5635 7.41995 14.5107 7.56229 14.4415C7.62529 13.9711 7.79246 13.61 8.06504 13.3578C7.67617 13.3151 7.32606 13.2522 7.01533 13.1678C6.70398 13.0842 6.38295 12.9478 6.05222 12.7577C5.71908 12.5691 5.44469 12.3351 5.22602 12.0534C5.00797 11.7754 4.82807 11.4055 4.68875 10.9527C4.54943 10.4954 4.47856 9.97152 4.47856 9.37527C4.47856 8.52808 4.7475 7.80603 5.28781 7.20978C5.03462 6.57203 5.05763 5.85753 5.36049 5.06506C5.55735 5.00216 5.85113 5.04933 6.24121 5.20657C6.63069 5.3638 6.91538 5.49903 7.09649 5.61035C7.2782 5.72356 7.42359 5.81791 7.53261 5.89464C8.16681 5.71601 8.8222 5.62608 9.49939 5.62608C10.1766 5.62608 10.832 5.71727 11.468 5.89904L11.8574 5.64621C12.124 5.47827 12.4389 5.32544 12.8012 5.18392C13.1646 5.0443 13.442 5.00593 13.6335 5.06883C13.9406 5.86131 13.9684 6.57517 13.7153 7.21356C14.2544 7.80855 14.5245 8.53059 14.5245 9.37842C14.5245 9.97341 14.4542 10.5011 14.3143 10.9602C14.1749 11.4194 13.9933 11.7892 13.7704 12.0653C13.5487 12.3421 13.2725 12.5747 12.9405 12.7647C12.6092 12.9534 12.2863 13.0899 11.9774 13.1736C11.6661 13.2578 11.3172 13.3207 10.9259 13.3622C11.2814 13.6767 11.4589 14.1736 11.4589 14.8548V17.073C11.4589 17.1988 11.5013 17.3032 11.5873 17.3875C11.6721 17.4712 11.8071 17.4964 11.992 17.4612C13.5789 16.9203 14.8715 15.9492 15.8728 14.5428C16.874 13.1401 17.375 11.5571 17.375 9.79919C17.375 8.33498 17.0224 6.98462 16.3186 5.74747C15.6142 4.51094 14.6589 3.53166 13.4536 2.81025L13.4518 2.80962Z" fill="#9C9DA1"/>
</svg>
