<svg width="19" height="19" viewBox="0 0 19 19" fill="none" xmlns="http://www.w3.org/2000/svg">
<path d="M4.94532 11.6831C4.94532 12.5984 4.20606 13.3384 3.29139 13.3384C2.37671 13.3384 1.63745 12.5984 1.63745 11.6831C1.63745 10.7677 2.37671 10.0278 3.29139 10.0278H4.94532V11.6831ZM5.7723 11.6831C5.7723 10.7677 6.51156 10.0278 7.42623 10.0278C8.34091 10.0278 9.08017 10.7677 9.08017 11.6831V15.8212C9.08017 16.7366 8.34091 17.4764 7.42623 17.4764C6.51156 17.4764 5.7723 16.7366 5.7723 15.8212V11.6831Z" fill="#9C9DA1"/>
<path d="M11.5737 14.166C12.4884 14.166 13.2277 14.9058 13.2277 15.8212C13.2277 16.7366 12.4884 17.4764 11.5737 17.4764C10.6591 17.4764 9.9198 16.7366 9.9198 15.8212V14.166H11.5737ZM11.5737 13.3384C10.6591 13.3384 9.9198 12.5984 9.9198 11.6831C9.9198 10.7677 10.6591 10.0278 11.5737 10.0278H15.7211C16.6357 10.0278 17.3751 10.7677 17.3751 11.6831C17.3751 12.5984 16.6357 13.3384 15.7211 13.3384H11.5737Z" fill="#9C9DA1"/>
<path d="M14.0547 7.5325C14.0547 6.61708 14.7939 5.87724 15.7086 5.87724C16.6233 5.87724 17.3625 6.61708 17.3625 7.5325C17.3625 8.4479 16.6233 9.18775 15.7086 9.18775H14.0547V7.5325ZM13.2277 7.5325C13.2277 8.4479 12.4884 9.18775 11.5737 9.18775C10.6591 9.18775 9.9198 8.4479 9.9198 7.5325V3.38182C9.9198 2.46641 10.6591 1.72656 11.5737 1.72656C12.4884 1.72656 13.2277 2.46641 13.2277 3.38182V7.5325Z" fill="#9C9DA1"/>
<path d="M7.42631 5.03708C6.51164 5.03708 5.77237 4.29722 5.77237 3.38182C5.77237 2.46641 6.51164 1.72656 7.42631 1.72656C8.34099 1.72656 9.08025 2.46641 9.08025 3.38182V5.03708H7.42631ZM7.42631 5.87724C8.34099 5.87724 9.08025 6.61708 9.08025 7.5325C9.08025 8.4479 8.34099 9.18775 7.42631 9.18775H3.27894C2.36426 9.18775 1.625 8.4479 1.625 7.5325C1.625 6.61708 2.36426 5.87724 3.27894 5.87724H7.42631Z" fill="#9C9DA1"/>
</svg>
