<svg width="19" height="19" viewBox="0 0 19 19" fill="none" xmlns="http://www.w3.org/2000/svg">
<g clip-path="url(#clip0_1_5837)">
<path d="M18.5 5.0125C17.8794 5.28317 17.2128 5.46605 16.5119 5.54872C17.2269 5.12735 17.7754 4.45872 18.034 3.66279C17.3651 4.05343 16.6242 4.33728 15.8357 4.48944C15.204 3.82812 14.3047 3.41406 13.3088 3.41406C11.3973 3.41406 9.84697 4.94007 9.84697 6.82308C9.84697 7.08936 9.87819 7.34833 9.93615 7.59852C7.05776 7.45587 4.50786 6.09884 2.8 4.03735C2.50271 4.54211 2.33178 5.12735 2.33178 5.75063C2.33178 6.93282 2.94343 7.97674 3.87168 8.58758C3.30388 8.56928 2.77026 8.4164 2.30353 8.16108V8.20498C2.30353 9.85608 3.49637 11.2336 5.08086 11.5467C4.78952 11.6242 4.48408 11.6652 4.16896 11.6652C3.946 11.6652 3.72824 11.6447 3.51717 11.6052C3.95789 12.9586 5.23618 13.9447 6.75157 13.9711C5.56617 14.8855 4.07309 15.4305 2.45144 15.4305C2.172 15.4305 1.89627 15.4144 1.625 15.3829C3.15747 16.3508 4.97681 16.9141 6.93141 16.9141C13.3006 16.9141 16.7825 11.7215 16.7825 7.21812C16.7825 7.07181 16.7787 6.92403 16.7721 6.77772C17.4483 6.29637 18.0355 5.69723 18.4985 5.01469L18.5 5.0125Z" fill="#9C9DA1"/>
</g>
<defs>
<clipPath id="clip0_1_5837">
<rect width="18" height="18" fill="white" transform="translate(0.5 0.601562)"/>
</clipPath>
</defs>
</svg>
