<svg width="35" height="35" viewBox="0 0 35 35" fill="none" xmlns="http://www.w3.org/2000/svg">
<g id="MagicWand">
<path id="Vector" d="M6.56256 8.75C6.56256 8.45992 6.67779 8.18172 6.88291 7.9766C7.08803 7.77148 7.36623 7.65625 7.65631 7.65625H9.84381V5.46875C9.84381 5.17867 9.95904 4.90047 10.1642 4.69535C10.3693 4.49023 10.6475 4.375 10.9376 4.375C11.2276 4.375 11.5058 4.49023 11.711 4.69535C11.9161 4.90047 12.0313 5.17867 12.0313 5.46875V7.65625H14.2188C14.5089 7.65625 14.7871 7.77148 14.9922 7.9766C15.1973 8.18172 15.3126 8.45992 15.3126 8.75C15.3126 9.04008 15.1973 9.31828 14.9922 9.5234C14.7871 9.72852 14.5089 9.84375 14.2188 9.84375H12.0313V12.0312C12.0313 12.3213 11.9161 12.5995 11.711 12.8046C11.5058 13.0098 11.2276 13.125 10.9376 13.125C10.6475 13.125 10.3693 13.0098 10.1642 12.8046C9.95904 12.5995 9.84381 12.3213 9.84381 12.0312V9.84375H7.65631C7.36623 9.84375 7.08803 9.72852 6.88291 9.5234C6.67779 9.31828 6.56256 9.04008 6.56256 8.75ZM25.1563 26.25H24.0626V25.1562C24.0626 24.8662 23.9473 24.588 23.7422 24.3829C23.5371 24.1777 23.2589 24.0625 22.9688 24.0625C22.6787 24.0625 22.4005 24.1777 22.1954 24.3829C21.9903 24.588 21.8751 24.8662 21.8751 25.1562V26.25H20.7813C20.4912 26.25 20.213 26.3652 20.0079 26.5704C19.8028 26.7755 19.6876 27.0537 19.6876 27.3438C19.6876 27.6338 19.8028 27.912 20.0079 28.1171C20.213 28.3223 20.4912 28.4375 20.7813 28.4375H21.8751V29.5312C21.8751 29.8213 21.9903 30.0995 22.1954 30.3046C22.4005 30.5098 22.6787 30.625 22.9688 30.625C23.2589 30.625 23.5371 30.5098 23.7422 30.3046C23.9473 30.0995 24.0626 29.8213 24.0626 29.5312V28.4375H25.1563C25.4464 28.4375 25.7246 28.3223 25.9297 28.1171C26.1348 27.912 26.2501 27.6338 26.2501 27.3438C26.2501 27.0537 26.1348 26.7755 25.9297 26.5704C25.7246 26.3652 25.4464 26.25 25.1563 26.25ZM32.8126 19.6875H30.6251V17.5C30.6251 17.2099 30.5098 16.9317 30.3047 16.7266C30.0996 16.5215 29.8214 16.4062 29.5313 16.4062C29.2412 16.4062 28.963 16.5215 28.7579 16.7266C28.5528 16.9317 28.4376 17.2099 28.4376 17.5V19.6875H26.2501C25.96 19.6875 25.6818 19.8027 25.4767 20.0079C25.2715 20.213 25.1563 20.4912 25.1563 20.7812C25.1563 21.0713 25.2715 21.3495 25.4767 21.5546C25.6818 21.7598 25.96 21.875 26.2501 21.875H28.4376V24.0625C28.4376 24.3526 28.5528 24.6308 28.7579 24.8359C28.963 25.041 29.2412 25.1562 29.5313 25.1562C29.8214 25.1562 30.0996 25.041 30.3047 24.8359C30.5098 24.6308 30.6251 24.3526 30.6251 24.0625V21.875H32.8126C33.1026 21.875 33.3808 21.7598 33.586 21.5546C33.7911 21.3495 33.9063 21.0713 33.9063 20.7812C33.9063 20.4912 33.7911 20.213 33.586 20.0079C33.3808 19.8027 33.1026 19.6875 32.8126 19.6875ZM29.9838 10.9375L10.9376 29.9838C10.5274 30.3937 9.97118 30.624 9.39127 30.624C8.81136 30.624 8.25518 30.3937 7.84498 29.9838L5.0149 27.1564C4.81172 26.9533 4.65055 26.7121 4.54058 26.4467C4.43062 26.1813 4.37402 25.8968 4.37402 25.6095C4.37402 25.3222 4.43062 25.0377 4.54058 24.7722C4.65055 24.5068 4.81172 24.2656 5.0149 24.0625L24.0626 5.01621C24.2657 4.81303 24.5069 4.65186 24.7723 4.54189C25.0377 4.43193 25.3222 4.37533 25.6095 4.37533C25.8968 4.37533 26.1813 4.43193 26.4468 4.54189C26.7122 4.65186 26.9534 4.81303 27.1565 5.01621L29.9838 7.84355C30.187 8.04669 30.3482 8.28786 30.4582 8.55329C30.5681 8.81872 30.6247 9.10322 30.6247 9.39053C30.6247 9.67784 30.5681 9.96233 30.4582 10.2278C30.3482 10.4932 30.187 10.7344 29.9838 10.9375ZM22.5149 15.3125L19.6876 12.4838L6.56256 25.6088L9.3899 28.4375L22.5149 15.3125ZM28.4376 9.39121L25.6088 6.5625L21.2338 10.9375L24.0626 13.7662L28.4376 9.39121Z" fill="white"/>
</g>
</svg>
