<svg width="41" height="41" xmlns="http://www.w3.org/2000/svg" fill="none">

 <g>
  <title>Layer 1</title>
  <path id="svg_1" fill="#ffffff" d="m4.175,34c-0.69167,0 -1.24792,-0.2227 -1.66875,-0.668c-0.42083,-0.4453 -0.63125,-1.0036 -0.63125,-1.675c0,-0.6713 0.21042,-1.2153 0.63125,-1.632c0.42083,-0.4167 0.97708,-0.625 1.66875,-0.625l33.55,0c0.6592,0 1.2073,0.2112 1.6444,0.6337c0.4371,0.4226 0.6556,0.9695 0.6556,1.6409c0,0.6713 -0.2185,1.2267 -0.6556,1.6662c-0.4371,0.4395 -0.9852,0.6592 -1.6444,0.6592l-33.55,0zm0,-11.45c-0.69167,0 -1.24792,-0.2227 -1.66875,-0.668c-0.42083,-0.4453 -0.63125,-0.987 -0.63125,-1.625c0,-0.6713 0.21042,-1.2153 0.63125,-1.632c0.42083,-0.4167 0.97708,-0.625 1.66875,-0.625l33.55,0c0.6592,0 1.2073,0.2112 1.6444,0.6337c0.4371,0.4226 0.6556,0.9695 0.6556,1.6409c0,0.638 -0.2185,1.1767 -0.6556,1.6162c-0.4371,0.4395 -0.9852,0.6592 -1.6444,0.6592l-33.55,0zm0,-11.45c-0.69167,0 -1.24792,-0.2143 -1.66875,-0.643c-0.42083,-0.4286 -0.63125,-0.9953 -0.63125,-1.7c0,-0.638 0.21042,-1.17367 0.63125,-1.607c0.42083,-0.43333 0.97708,-0.65 1.66875,-0.65l33.55,0c0.6592,0 1.2073,0.21958 1.6444,0.65875c0.4371,0.4392 0.6556,0.9778 0.6556,1.6158c0,0.7047 -0.2185,1.26845 -0.6556,1.69125c-0.4371,0.4228 -0.9852,0.6342 -1.6444,0.6342l-33.55,0z"/>
 </g>
</svg>