<svg width="35" height="35" viewBox="0 0 35 35" fill="none" xmlns="http://www.w3.org/2000/svg">
<g id="Swatches">
<path id="Vector" d="M10.9375 24.6095C10.9375 24.934 10.8413 25.2512 10.661 25.521C10.4807 25.7908 10.2245 26.001 9.92472 26.1252C9.62493 26.2494 9.29506 26.2819 8.97681 26.2186C8.65856 26.1553 8.36623 25.999 8.13678 25.7696C7.90734 25.5401 7.75108 25.2478 7.68778 24.9296C7.62447 24.6113 7.65696 24.2814 7.78114 23.9816C7.90531 23.6819 8.1156 23.4256 8.3854 23.2454C8.6552 23.0651 8.97239 22.9689 9.29688 22.9689C9.732 22.9689 10.1493 23.1417 10.457 23.4494C10.7647 23.7571 10.9375 24.1744 10.9375 24.6095ZM31.7188 21.3542V28.4376C31.7188 29.0178 31.4883 29.5742 31.078 29.9844C30.6678 30.3946 30.1114 30.6251 29.5313 30.6251H9.29688C8.93303 30.6253 8.56984 30.5942 8.21133 30.5321C6.64731 30.2468 5.25984 29.3539 4.35217 28.0486C3.4445 26.7434 3.09045 25.1319 3.36739 23.5663L6.78536 3.99777C6.83394 3.71501 6.93787 3.44462 7.0912 3.20213C7.24453 2.95964 7.44423 2.7498 7.67884 2.58467C7.91346 2.41954 8.17837 2.30236 8.45838 2.23985C8.73839 2.17734 9.02798 2.17074 9.31055 2.22042L16.7945 3.5548C17.364 3.65742 17.8696 3.98148 18.2006 4.45603C18.5317 4.93058 18.6612 5.51697 18.5609 6.08683L16.9094 15.5204L26.1803 12.1681C26.7237 11.9718 27.3228 11.9985 27.8466 12.2423C28.3704 12.4862 28.7765 12.9274 28.9762 13.4696L31.582 20.6023C31.6657 20.8445 31.7119 21.098 31.7188 21.3542ZM12.9883 25.2753L16.4063 5.70675L8.94961 4.37511L5.53164 23.9396C5.3532 24.9347 5.57564 25.96 6.15043 26.7917C6.72522 27.6234 7.60567 28.1939 8.59961 28.3788C9.08618 28.4661 9.58523 28.4558 10.0678 28.3485C10.5503 28.2413 11.0068 28.0392 11.4106 27.754C11.8247 27.466 12.1774 27.0986 12.4482 26.673C12.7191 26.2475 12.9027 25.7724 12.9883 25.2753ZM14.8723 26.6603L29.5313 21.3433L26.9227 14.2189L16.4746 18.006L15.1375 25.6513C15.0781 25.9946 14.9893 26.3321 14.8723 26.6603ZM29.5313 23.6689L16.3707 28.4376H29.5313V23.6689Z" fill="white"/>
</g>
</svg>
