<svg width="35" height="35" viewBox="0 0 35 35" fill="none" xmlns="http://www.w3.org/2000/svg">
<g id="TerminalWindow">
<path id="Vector" d="M17.5 17.5C17.5001 17.6641 17.4633 17.8261 17.3923 17.974C17.3213 18.1219 17.2179 18.2519 17.0898 18.3545L11.6211 22.7295C11.5089 22.8193 11.3801 22.8861 11.2421 22.926C11.104 22.966 10.9595 22.9785 10.8167 22.9626C10.6738 22.9467 10.5355 22.9029 10.4097 22.8336C10.2838 22.7642 10.1728 22.6708 10.083 22.5586C9.99324 22.4464 9.92645 22.3176 9.88645 22.1796C9.84646 22.0415 9.83404 21.897 9.84991 21.7542C9.86578 21.6113 9.90962 21.473 9.97894 21.3472C10.0483 21.2213 10.1417 21.1103 10.2539 21.0205L14.6549 17.5L10.2539 13.9795C10.1417 13.8897 10.0483 13.7787 9.97894 13.6528C9.90962 13.527 9.86578 13.3887 9.84991 13.2458C9.83404 13.103 9.84646 12.9585 9.88645 12.8204C9.92645 12.6824 9.99324 12.5536 10.083 12.4414C10.1728 12.3292 10.2838 12.2358 10.4097 12.1664C10.5355 12.0971 10.6738 12.0533 10.8167 12.0374C10.9595 12.0215 11.104 12.034 11.2421 12.074C11.3801 12.1139 11.5089 12.1807 11.6211 12.2705L17.0898 16.6455C17.2179 16.7481 17.3213 16.8781 17.3923 17.026C17.4633 17.1739 17.5001 17.3359 17.5 17.5ZM24.0625 20.7812H18.5938C18.3037 20.7812 18.0255 20.8965 17.8204 21.1016C17.6152 21.3067 17.5 21.5849 17.5 21.875C17.5 22.1651 17.6152 22.4433 17.8204 22.6484C18.0255 22.8535 18.3037 22.9688 18.5938 22.9688H24.0625C24.3526 22.9688 24.6308 22.8535 24.8359 22.6484C25.041 22.4433 25.1562 22.1651 25.1562 21.875C25.1562 21.5849 25.041 21.3067 24.8359 21.1016C24.6308 20.8965 24.3526 20.7812 24.0625 20.7812ZM31.7188 7.65625V27.3438C31.7188 27.9239 31.4883 28.4803 31.078 28.8905C30.6678 29.3008 30.1114 29.5312 29.5312 29.5312H5.46875C4.88859 29.5312 4.33219 29.3008 3.92195 28.8905C3.51172 28.4803 3.28125 27.9239 3.28125 27.3438V7.65625C3.28125 7.07609 3.51172 6.51969 3.92195 6.10945C4.33219 5.69922 4.88859 5.46875 5.46875 5.46875H29.5312C30.1114 5.46875 30.6678 5.69922 31.078 6.10945C31.4883 6.51969 31.7188 7.07609 31.7188 7.65625ZM29.5312 27.3438V7.65625H5.46875V27.3438H29.5312Z" fill="white"/>
</g>
</svg>
