<svg width="41" height="41" viewBox="0 0 41 41" fill="none" xmlns="http://www.w3.org/2000/svg">
<path d="M40.5 20.5C40.5 9.4543 31.5457 0.5 20.5 0.5H0.5V20.5C0.5 31.5457 9.45431 40.5 20.5 40.5C31.5457 40.5 40.5 31.5457 40.5 20.5Z" stroke="url(#paint0_radial_797_36571)"/>
<path d="M31.0625 15.625V19.6875C31.0625 19.903 30.9769 20.1097 30.8245 20.262C30.6722 20.4144 30.4655 20.5 30.25 20.5C28.5527 20.5039 26.8798 20.0958 25.375 19.3107V23.3438C25.375 25.3909 24.5618 27.3542 23.1142 28.8017C21.6667 30.2493 19.7034 31.0625 17.6562 31.0625C15.6091 31.0625 13.6458 30.2493 12.1983 28.8017C10.7507 27.3542 9.9375 25.3909 9.9375 23.3438C9.9375 19.5961 12.6705 16.2831 16.2953 15.6372C16.4122 15.6164 16.5323 15.6215 16.6471 15.6521C16.7618 15.6828 16.8685 15.7382 16.9595 15.8145C17.0505 15.8908 17.1237 15.9861 17.1739 16.0938C17.2241 16.2014 17.2501 16.3187 17.25 16.4375V20.7732C17.2501 20.927 17.2065 21.0776 17.1243 21.2076C17.0421 21.3376 16.9248 21.4416 16.7859 21.5075C16.4574 21.6632 16.1768 21.9043 15.9733 22.2054C15.7698 22.5066 15.6508 22.8568 15.6287 23.2196C15.6067 23.5824 15.6824 23.9445 15.848 24.2681C16.0135 24.5917 16.2629 24.8649 16.57 25.0592C16.8772 25.2536 17.2309 25.362 17.5942 25.3731C17.9575 25.3842 18.3171 25.2977 18.6355 25.1224C18.954 24.9472 19.2196 24.6897 19.4046 24.3769C19.5896 24.064 19.6873 23.7072 19.6875 23.3438V9.9375C19.6875 9.72201 19.7731 9.51535 19.9255 9.36298C20.0778 9.2106 20.2845 9.125 20.5 9.125H24.5625C24.778 9.125 24.9847 9.2106 25.137 9.36298C25.2894 9.51535 25.375 9.72201 25.375 9.9375C25.3763 11.23 25.8904 12.4692 26.8043 13.3832C27.7183 14.2971 28.9575 14.8112 30.25 14.8125C30.4655 14.8125 30.6722 14.8981 30.8245 15.0505C30.9769 15.2028 31.0625 15.4095 31.0625 15.625Z" fill="#0155ED"/>
<defs>
<radialGradient id="paint0_radial_797_36571" cx="0" cy="0" r="1" gradientUnits="userSpaceOnUse" gradientTransform="translate(20.5 20.5) rotate(90) scale(20.5)">
<stop stop-color="#001AFF"/>
<stop offset="1" stop-color="#0019FF" stop-opacity="0.34"/>
</radialGradient>
</defs>
</svg>
