<svg width="40" height="41" viewBox="0 0 40 41" fill="none" xmlns="http://www.w3.org/2000/svg">
<path d="M39.5 20.5C39.5 9.4543 30.5457 0.5 19.5 0.5H0.5V21C0.5 31.7696 9.23045 40.5 20 40.5C30.7696 40.5 39.5 31.7696 39.5 21V20.5Z" stroke="url(#paint0_radial_797_36575)"/>
<path d="M31.9499 15.3878L28.9131 18.4245C28.2997 25.5359 22.3024 31.063 15.125 31.063C13.6503 31.063 12.4346 30.8294 11.5114 30.3683C10.767 29.9955 10.4623 29.5964 10.3861 29.4826C10.3182 29.3808 10.2742 29.2649 10.2573 29.1436C10.2405 29.0224 10.2513 28.8989 10.2889 28.7824C10.3265 28.6658 10.3899 28.5593 10.4745 28.4708C10.559 28.3822 10.6625 28.3139 10.7771 28.271C10.8035 28.2609 13.239 27.3255 14.7858 25.5451C13.928 24.8398 13.1792 24.0116 12.5636 23.0873C11.3042 21.2175 9.89455 17.9695 10.3292 13.1159C10.343 12.9616 10.4006 12.8145 10.4951 12.6919C10.5897 12.5693 10.7173 12.4763 10.863 12.4238C11.0087 12.3713 11.1663 12.3615 11.3174 12.3956C11.4684 12.4297 11.6066 12.5062 11.7156 12.6162C11.7511 12.6517 15.0956 15.9779 19.1845 17.0565V16.438C19.1829 15.7894 19.3112 15.147 19.5616 14.5488C19.8121 13.9505 20.1797 13.4084 20.6429 12.9544C21.0927 12.5052 21.628 12.1506 22.217 11.9117C22.8061 11.6727 23.437 11.5541 24.0727 11.563C24.9254 11.5714 25.7613 11.8003 26.4994 12.2274C27.2374 12.6545 27.8524 13.2653 28.2845 14.0005H31.375C31.5358 14.0003 31.693 14.0479 31.8268 14.1372C31.9605 14.2265 32.0647 14.3534 32.1263 14.5019C32.1878 14.6505 32.2039 14.814 32.1725 14.9716C32.1411 15.1293 32.0636 15.2742 31.9499 15.3878Z" fill="#0155ED"/>
<defs>
<radialGradient id="paint0_radial_797_36575" cx="0" cy="0" r="1" gradientUnits="userSpaceOnUse" gradientTransform="translate(20 20.5) rotate(90) scale(20.5 20)">
<stop stop-color="#001AFF"/>
<stop offset="1" stop-color="#0019FF" stop-opacity="0.34"/>
</radialGradient>
</defs>
</svg>
