<svg width="19" height="19" viewBox="0 0 19 19" fill="none" xmlns="http://www.w3.org/2000/svg">
<g id="iconixto/solid/user-group">
<g id="icon">
<path d="M9.49996 9.5C11.4675 9.5 13.0625 7.90501 13.0625 5.9375C13.0625 3.96999 11.4675 2.375 9.49996 2.375C7.53244 2.375 5.93746 3.96999 5.93746 5.9375C5.93746 7.90501 7.53244 9.5 9.49996 9.5Z" fill="#363538"/>
<path d="M9.49996 16.625C12.648 16.625 15.2 15.1895 15.2 13.4187C15.2 11.648 12.648 10.2125 9.49996 10.2125C6.35193 10.2125 3.79996 11.648 3.79996 13.4187C3.79996 15.1895 6.35193 16.625 9.49996 16.625Z" fill="#363538"/>
<path d="M14.6458 5.93756C14.6458 5.58883 14.5331 5.26643 14.342 5.00483C14.1662 4.76406 13.9241 4.57479 13.6426 4.46387L13.6225 4.45573C13.5866 4.44084 13.5512 4.42408 13.5168 4.40556C13.4804 4.38601 13.445 4.3645 13.4111 4.34114C13.2111 4.20339 13.0625 4.00157 13.0625 3.76048C13.0625 3.43256 13.3314 3.16012 13.6519 3.22956C14.6009 3.43515 15.3687 4.12692 15.6816 5.03107C15.7799 5.3151 15.8333 5.6201 15.8333 5.93756C15.8333 6.25503 15.7799 6.56002 15.6816 6.84406C15.3687 7.7482 14.6009 8.43997 13.6519 8.64557C13.3314 8.715 13.0625 8.44257 13.0625 8.11465C13.0625 7.87356 13.2111 7.67173 13.4111 7.53399C13.445 7.51063 13.4804 7.48911 13.5168 7.46956C13.5512 7.45104 13.5866 7.43428 13.6225 7.41939L13.6426 7.41126C13.9241 7.30034 14.1662 7.11106 14.342 6.8703C14.5331 6.60869 14.6458 6.28629 14.6458 5.93756Z" fill="#363538"/>
<path d="M16.2291 13.0626C16.2291 13.1316 16.1929 13.2876 16.0111 13.4879C15.9441 13.5618 15.8573 13.6417 15.7452 13.7255C15.7247 13.7408 15.7049 13.757 15.6859 13.7741C15.6664 13.7915 15.6478 13.8098 15.6302 13.8288C15.5124 13.956 15.4375 14.1176 15.4375 14.2928C15.4375 14.7458 15.9024 15.0519 16.2791 14.8003C16.34 14.7596 16.3988 14.718 16.4554 14.6755L16.4781 14.6583C16.6488 14.528 16.7992 14.3895 16.9268 14.244C17.2409 13.8856 17.4166 13.4852 17.4166 13.0626C17.4166 12.64 17.2409 12.2395 16.9267 11.8811C16.7992 11.7356 16.6488 11.5971 16.4781 11.4668L16.4554 11.4496C16.3988 11.4071 16.34 11.3655 16.2791 11.3248C15.9024 11.0732 15.4375 11.3793 15.4375 11.8323C15.4375 12.0075 15.5124 12.1692 15.6302 12.2964C15.6478 12.3154 15.6664 12.3337 15.6859 12.3511C15.7049 12.3681 15.7247 12.3843 15.7452 12.3997C15.8573 12.4834 15.9441 12.5633 16.0111 12.6372C16.1929 12.8375 16.2291 12.9936 16.2291 13.0626Z" fill="#363538"/>
<path d="M4.35409 5.93737C4.35409 5.58864 4.46683 5.26624 4.65785 5.00463C4.83366 4.76387 5.07577 4.57459 5.35732 4.46368L5.37743 4.45554C5.41329 4.44065 5.44865 4.42389 5.48312 4.40537C5.51951 4.38582 5.55489 4.3643 5.5888 4.34094C5.78877 4.2032 5.93742 4.00138 5.93742 3.76029C5.93742 3.43237 5.66847 3.15993 5.34799 3.22936C4.39898 3.43496 3.63114 4.12673 3.31826 5.03088C3.21997 5.31491 3.16659 5.61991 3.16659 5.93737C3.16659 6.25483 3.21997 6.55983 3.31826 6.84386C3.63114 7.74801 4.39898 8.43978 5.34799 8.64538C5.66847 8.71481 5.93742 8.44237 5.93742 8.11445C5.93742 7.87336 5.78877 7.67154 5.5888 7.53379C5.55489 7.51044 5.51951 7.48892 5.48312 7.46937C5.44865 7.45085 5.41328 7.43409 5.37742 7.4192L5.35732 7.41106C5.07577 7.30015 4.83366 7.11087 4.65785 6.8701C4.46683 6.6085 4.35409 6.2861 4.35409 5.93737Z" fill="#363538"/>
<path d="M2.77075 13.0624C2.77075 13.1314 2.80701 13.2874 2.98878 13.4878C3.05581 13.5616 3.14261 13.6415 3.25467 13.7253C3.2752 13.7406 3.29502 13.7569 3.31403 13.7739C3.33347 13.7913 3.35206 13.8096 3.36969 13.8286C3.48746 13.9558 3.56242 14.1174 3.56242 14.2926C3.56242 14.7456 3.09749 15.0517 2.72078 14.8001C2.65989 14.7594 2.6011 14.7178 2.54448 14.6753L2.52177 14.6581C2.35105 14.5279 2.20068 14.3893 2.07313 14.2438C1.75894 13.8855 1.58325 13.485 1.58325 13.0624C1.58325 12.6398 1.75894 12.2393 2.07314 11.8809C2.20069 11.7354 2.35106 11.5969 2.52177 11.4666L2.54448 11.4494C2.6011 11.4069 2.65989 11.3653 2.72078 11.3246C3.09749 11.073 3.56242 11.3791 3.56242 11.8321C3.56242 12.0073 3.48746 12.169 3.36969 12.2962C3.35206 12.3152 3.33347 12.3335 3.31403 12.3509C3.29502 12.3679 3.2752 12.3841 3.25467 12.3995C3.14261 12.4832 3.05581 12.5631 2.98878 12.637C2.80701 12.8373 2.77075 12.9934 2.77075 13.0624Z" fill="#363538"/>
</g>
</g>
</svg>
