<svg width="41" height="41" viewBox="0 0 41 41" fill="none" xmlns="http://www.w3.org/2000/svg">
<path d="M40.5 20.5C40.5 9.4543 31.5457 0.5 20.5 0.5H0.5V20.5C0.5 31.5457 9.45431 40.5 20.5 40.5C31.5457 40.5 40.5 31.5457 40.5 20.5Z" stroke="url(#paint0_radial_797_36579)"/>
<path d="M31.2991 14.5606C31.2034 14.1862 31.0201 13.8399 30.7642 13.5503C30.5083 13.2607 30.1873 13.0361 29.8275 12.895C26.3459 11.5503 20.8047 11.5625 20.5 11.5625C20.1953 11.5625 14.6541 11.5503 11.1725 12.895C10.8127 13.0361 10.4917 13.2607 10.2358 13.5503C9.97991 13.8399 9.79656 14.1862 9.70086 14.5606C9.43781 15.5742 9.125 17.4267 9.125 20.5C9.125 23.5733 9.43781 25.4258 9.70086 26.4394C9.79641 26.814 9.9797 27.1605 10.2356 27.4503C10.4915 27.7401 10.8126 27.9648 11.1725 28.106C14.5078 29.3928 19.7281 29.4375 20.433 29.4375H20.567C21.2719 29.4375 26.4952 29.3928 29.8275 28.106C30.1874 27.9648 30.5085 27.7401 30.7644 27.4503C31.0203 27.1605 31.2036 26.814 31.2991 26.4394C31.5622 25.4238 31.875 23.5733 31.875 20.5C31.875 17.4267 31.5622 15.5742 31.2991 14.5606ZM23.9755 20.8382L19.1005 24.0882C19.0393 24.129 18.9681 24.1525 18.8947 24.156C18.8212 24.1596 18.7481 24.1431 18.6833 24.1084C18.6184 24.0737 18.5642 24.022 18.5264 23.9589C18.4886 23.8958 18.4687 23.8236 18.4688 23.75V17.25C18.4687 17.1764 18.4886 17.1042 18.5264 17.0411C18.5642 16.978 18.6184 16.9263 18.6833 16.8916C18.7481 16.8569 18.8212 16.8404 18.8947 16.844C18.9681 16.8475 19.0393 16.871 19.1005 16.9118L23.9755 20.1618C24.0312 20.1989 24.0769 20.2492 24.1085 20.3082C24.1401 20.3672 24.1566 20.4331 24.1566 20.5C24.1566 20.5669 24.1401 20.6328 24.1085 20.6918C24.0769 20.7508 24.0312 20.8011 23.9755 20.8382Z" fill="#00947F"/>
<defs>
<radialGradient id="paint0_radial_797_36579" cx="0" cy="0" r="1" gradientUnits="userSpaceOnUse" gradientTransform="translate(20.5 20.5) rotate(90) scale(20.5)">
<stop stop-color="#0075FF"/>
<stop offset="1" stop-color="#0075FF" stop-opacity="0.54"/>
</radialGradient>
</defs>
</svg>
