<svg width="120" height="29" viewBox="0 0 120 29" fill="none" xmlns="http://www.w3.org/2000/svg">
<path d="M6.10352e-05 25.6114L10.649 18.2842L7.77594 14.4999L6.10352e-05 25.6114Z" fill="#E10531"/>
<path d="M31.9737 25.5173L24.3621 14.4999L21.5833 18.2842L31.9737 25.5173Z" fill="#E10531"/>
<path d="M10.649 18.284L6.10352e-05 25.6112L16.1477 25.5271L10.649 18.284ZM10.4593 19.859L14.1558 24.7269L3.30151 24.7833L10.4593 19.8579V19.859Z" fill="#6B0014"/>
<path d="M21.5833 18.284L31.9737 25.5172L16.1478 25.5271L21.5833 18.284ZM21.8363 19.859L18.1398 24.7269L28.9941 24.7833L21.8363 19.8579V19.859Z" fill="#6B0014"/>
<path d="M16.1466 7.86766L16.1477 2.61133L7.77594 14.4998L10.649 18.284L16.1466 7.86766Z" fill="#E10531"/>
<path d="M21.5832 18.284L24.362 14.4998L16.1478 2.61133L16.1467 7.86766L21.5832 18.284Z" fill="#A50727"/>
<path d="M16.1467 7.86755V9.18247L19.9386 16.2739L16.1467 13.4759L16.1478 14.4997L21.5832 18.2839L16.1467 7.86755Z" fill="#E10531"/>
<path d="M16.1467 13.4759L16.1478 14.4997L10.6491 18.2839L16.1467 7.86755V9.18247L12.2027 16.2739L16.1467 13.4759Z" fill="#A50727"/>
<path d="M16.1478 14.4999L16.1467 15.6045L20.5101 18.6096L16.1467 24.395L16.1478 25.5272L21.5832 18.2842L16.1478 14.4999Z" fill="#A50727"/>
<path d="M16.1467 15.6045L11.7821 18.6096L16.1467 24.395L16.1478 25.5272L10.6491 18.2842L16.1478 14.4999L16.1467 15.6045Z" fill="#E10531"/>
<path d="M46.8418 9.804C46.7458 9.972 46.6418 10.096 46.5298 10.176C46.4258 10.248 46.2938 10.284 46.1338 10.284C45.9658 10.284 45.7818 10.224 45.5818 10.104C45.3898 9.976 45.1578 9.836 44.8858 9.684C44.6138 9.532 44.2938 9.396 43.9258 9.276C43.5658 9.148 43.1378 9.084 42.6418 9.084C42.1938 9.084 41.8018 9.14 41.4658 9.252C41.1298 9.356 40.8458 9.504 40.6138 9.696C40.3898 9.888 40.2218 10.12 40.1098 10.392C39.9978 10.656 39.9418 10.948 39.9418 11.268C39.9418 11.676 40.0538 12.016 40.2778 12.288C40.5098 12.56 40.8138 12.792 41.1898 12.984C41.5658 13.176 41.9938 13.348 42.4738 13.5C42.9538 13.652 43.4458 13.816 43.9498 13.992C44.4538 14.16 44.9458 14.36 45.4258 14.592C45.9058 14.816 46.3338 15.104 46.7098 15.456C47.0858 15.8 47.3858 16.224 47.6098 16.728C47.8418 17.232 47.9578 17.844 47.9578 18.564C47.9578 19.348 47.8218 20.084 47.5498 20.772C47.2858 21.452 46.8938 22.048 46.3738 22.56C45.8618 23.064 45.2338 23.464 44.4898 23.76C43.7458 24.048 42.8938 24.192 41.9338 24.192C41.3818 24.192 40.8378 24.136 40.3018 24.024C39.7658 23.92 39.2498 23.768 38.7538 23.568C38.2658 23.368 37.8058 23.128 37.3738 22.848C36.9418 22.568 36.5578 22.256 36.2218 21.912L37.1698 20.364C37.2498 20.252 37.3538 20.16 37.4818 20.088C37.6098 20.008 37.7458 19.968 37.8898 19.968C38.0898 19.968 38.3058 20.052 38.5378 20.22C38.7698 20.38 39.0458 20.56 39.3658 20.76C39.6858 20.96 40.0578 21.144 40.4818 21.312C40.9138 21.472 41.4298 21.552 42.0298 21.552C42.9498 21.552 43.6618 21.336 44.1658 20.904C44.6698 20.464 44.9218 19.836 44.9218 19.02C44.9218 18.564 44.8058 18.192 44.5738 17.904C44.3498 17.616 44.0498 17.376 43.6738 17.184C43.2978 16.984 42.8698 16.816 42.3898 16.68C41.9098 16.544 41.4218 16.396 40.9258 16.236C40.4298 16.076 39.9418 15.884 39.4618 15.66C38.9818 15.436 38.5538 15.144 38.1778 14.784C37.8018 14.424 37.4978 13.976 37.2658 13.44C37.0418 12.896 36.9298 12.228 36.9298 11.436C36.9298 10.804 37.0538 10.188 37.3018 9.588C37.5578 8.988 37.9258 8.456 38.4058 7.992C38.8858 7.528 39.4778 7.156 40.1818 6.876C40.8858 6.596 41.6938 6.456 42.6058 6.456C43.6298 6.456 44.5738 6.616 45.4378 6.936C46.3018 7.256 47.0378 7.704 47.6458 8.28L46.8418 9.804ZM59.6777 21.396C60.3017 21.396 60.8577 21.292 61.3457 21.084C61.8417 20.876 62.2577 20.584 62.5937 20.208C62.9297 19.832 63.1857 19.376 63.3617 18.84C63.5457 18.304 63.6377 17.704 63.6377 17.04V6.648H66.8657V17.04C66.8657 18.072 66.6977 19.028 66.3617 19.908C66.0337 20.78 65.5577 21.536 64.9337 22.176C64.3177 22.808 63.5657 23.304 62.6777 23.664C61.7897 24.016 60.7897 24.192 59.6777 24.192C58.5577 24.192 57.5537 24.016 56.6657 23.664C55.7777 23.304 55.0217 22.808 54.3977 22.176C53.7817 21.536 53.3057 20.78 52.9697 19.908C52.6417 19.028 52.4777 18.072 52.4777 17.04V6.648H55.7057V17.028C55.7057 17.692 55.7937 18.292 55.9697 18.828C56.1537 19.364 56.4137 19.824 56.7497 20.208C57.0937 20.584 57.5097 20.876 57.9977 21.084C58.4937 21.292 59.0537 21.396 59.6777 21.396ZM77.6702 14.904C78.2782 14.904 78.8062 14.828 79.2542 14.676C79.7102 14.524 80.0822 14.316 80.3702 14.052C80.6662 13.78 80.8862 13.46 81.0302 13.092C81.1742 12.724 81.2462 12.32 81.2462 11.88C81.2462 11 80.9542 10.324 80.3702 9.852C79.7942 9.38 78.9102 9.144 77.7182 9.144H75.6542V14.904H77.6702ZM85.9742 24H83.0582C82.5062 24 82.1062 23.784 81.8582 23.352L78.2102 17.796C78.0742 17.588 77.9222 17.44 77.7542 17.352C77.5942 17.264 77.3542 17.22 77.0342 17.22H75.6542V24H72.4262V6.648H77.7182C78.8942 6.648 79.9022 6.772 80.7422 7.02C81.5902 7.26 82.2822 7.6 82.8182 8.04C83.3622 8.48 83.7622 9.008 84.0182 9.624C84.2742 10.232 84.4022 10.904 84.4022 11.64C84.4022 12.224 84.3142 12.776 84.1382 13.296C83.9702 13.816 83.7222 14.288 83.3942 14.712C83.0742 15.136 82.6742 15.508 82.1942 15.828C81.7222 16.148 81.1822 16.4 80.5742 16.584C80.7822 16.704 80.9742 16.848 81.1502 17.016C81.3262 17.176 81.4862 17.368 81.6302 17.592L85.9742 24ZM96.4232 17.28V24H93.2072V17.28L86.8832 6.648H89.7272C90.0072 6.648 90.2272 6.716 90.3872 6.852C90.5552 6.988 90.6952 7.16 90.8072 7.368L93.9752 13.164C94.1592 13.508 94.3192 13.832 94.4552 14.136C94.5992 14.44 94.7272 14.744 94.8392 15.048C94.9432 14.744 95.0632 14.44 95.1992 14.136C95.3352 13.832 95.4912 13.508 95.6672 13.164L98.8232 7.368C98.9112 7.192 99.0432 7.028 99.2192 6.876C99.3952 6.724 99.6192 6.648 99.8912 6.648H102.747L96.4232 17.28ZM113.817 17.448L111.705 11.676C111.601 11.42 111.493 11.116 111.381 10.764C111.269 10.412 111.157 10.032 111.045 9.624C110.941 10.032 110.833 10.416 110.721 10.776C110.609 11.128 110.501 11.436 110.397 11.7L108.297 17.448H113.817ZM119.517 24H117.021C116.741 24 116.513 23.932 116.337 23.796C116.161 23.652 116.029 23.476 115.941 23.268L114.645 19.728H107.457L106.161 23.268C106.097 23.452 105.973 23.62 105.789 23.772C105.605 23.924 105.377 24 105.105 24H102.585L109.413 6.648H112.701L119.517 24Z" fill="#A50727"/>
</svg>
