<svg width="224" height="55" viewBox="0 0 224 55" fill="none" xmlns="http://www.w3.org/2000/svg">
<path d="M0 42.8633L19.8456 29.2082L14.4913 22.1558L0 42.8633Z" fill="white"/>
<path d="M59.5869 42.6879L45.4017 22.1558L40.2231 29.2082L59.5869 42.6879Z" fill="white"/>
<path d="M19.8456 29.208L0 42.8631L30.0931 42.7064L19.8456 29.208ZM19.4919 32.1432L26.3808 41.215L6.15263 41.3202L19.4919 32.1412V32.1432Z" fill="white"/>
<path d="M40.223 29.208L59.5867 42.6878L30.0934 42.7064L40.223 29.208ZM40.6945 32.1432L33.8056 41.215L54.0338 41.3202L40.6945 32.1412V32.1432Z" fill="white"/>
<path d="M30.0913 9.79567L30.0934 -0.00012207L14.4915 22.1554L19.8459 29.2078L30.0913 9.79567Z" fill="white"/>
<path d="M40.223 29.2078L45.4015 22.1554L30.0934 -0.00012207L30.0913 9.79567L40.223 29.2078Z" fill="white"/>
<path d="M30.0913 9.79565V12.2461L37.158 25.4619L30.0913 20.2474L30.0934 22.1554L40.223 29.2078L30.0913 9.79565Z" fill="white"/>
<path d="M30.0912 20.2474L30.0933 22.1554L19.8458 29.2078L30.0912 9.79565V12.2461L22.7411 25.4619L30.0912 20.2474Z" fill="white"/>
<path d="M30.0934 22.1558L30.0913 24.2143L38.2231 29.8146L30.0913 40.5964L30.0934 42.7065L40.223 29.2082L30.0934 22.1558Z" fill="white"/>
<path d="M30.0912 24.2143L21.9573 29.8146L30.0912 40.5964L30.0933 42.7065L19.8458 29.2082L30.0933 22.1558L30.0912 24.2143Z" fill="white"/>
<path d="M85.0949 15.3401C84.9349 15.6201 84.7615 15.8268 84.5749 15.9601C84.4015 16.0801 84.1815 16.1401 83.9149 16.1401C83.6349 16.1401 83.3282 16.0401 82.9949 15.8401C82.6749 15.6268 82.2882 15.3935 81.8349 15.1401C81.3815 14.8868 80.8482 14.6601 80.2349 14.4601C79.6349 14.2468 78.9215 14.1401 78.0949 14.1401C77.3482 14.1401 76.6949 14.2335 76.1349 14.4201C75.5749 14.5935 75.1015 14.8401 74.7149 15.1601C74.3415 15.4801 74.0615 15.8668 73.8749 16.3201C73.6882 16.7601 73.5949 17.2468 73.5949 17.7801C73.5949 18.4601 73.7815 19.0268 74.1549 19.4801C74.5415 19.9335 75.0482 20.3201 75.6749 20.6401C76.3015 20.9601 77.0149 21.2468 77.8149 21.5001C78.6149 21.7535 79.4349 22.0268 80.2749 22.3201C81.1149 22.6001 81.9349 22.9335 82.7349 23.3201C83.5349 23.6935 84.2482 24.1735 84.8749 24.7601C85.5015 25.3335 86.0015 26.0401 86.3749 26.8801C86.7615 27.7201 86.9549 28.7401 86.9549 29.9401C86.9549 31.2468 86.7282 32.4735 86.2749 33.6201C85.8349 34.7535 85.1815 35.7468 84.3149 36.6001C83.4615 37.4401 82.4149 38.1068 81.1749 38.6001C79.9349 39.0801 78.5149 39.3201 76.9149 39.3201C75.9949 39.3201 75.0882 39.2268 74.1949 39.0401C73.3015 38.8668 72.4415 38.6135 71.6149 38.2801C70.8015 37.9468 70.0349 37.5468 69.3149 37.0801C68.5949 36.6135 67.9549 36.0935 67.3949 35.5201L68.9749 32.9401C69.1082 32.7535 69.2815 32.6001 69.4949 32.4801C69.7082 32.3468 69.9349 32.2801 70.1749 32.2801C70.5082 32.2801 70.8682 32.4201 71.2549 32.7001C71.6415 32.9668 72.1015 33.2668 72.6349 33.6001C73.1682 33.9335 73.7882 34.2401 74.4949 34.5201C75.2149 34.7868 76.0749 34.9201 77.0749 34.9201C78.6082 34.9201 79.7949 34.5601 80.6349 33.8401C81.4749 33.1068 81.8949 32.0601 81.8949 30.7001C81.8949 29.9401 81.7015 29.3201 81.3149 28.8401C80.9415 28.3601 80.4415 27.9601 79.8149 27.6401C79.1882 27.3068 78.4749 27.0268 77.6749 26.8001C76.8749 26.5735 76.0615 26.3268 75.2349 26.0601C74.4082 25.7935 73.5949 25.4735 72.7949 25.1001C71.9949 24.7268 71.2815 24.2401 70.6549 23.6401C70.0282 23.0401 69.5215 22.2935 69.1349 21.4001C68.7615 20.4935 68.5749 19.3801 68.5749 18.0601C68.5749 17.0068 68.7815 15.9801 69.1949 14.9801C69.6215 13.9801 70.2349 13.0935 71.0349 12.3201C71.8349 11.5468 72.8215 10.9268 73.9949 10.4601C75.1682 9.99345 76.5149 9.76012 78.0349 9.76012C79.7415 9.76012 81.3149 10.0268 82.7549 10.5601C84.1949 11.0935 85.4215 11.8401 86.4349 12.8001L85.0949 15.3401ZM106.488 34.6601C107.528 34.6601 108.455 34.4868 109.268 34.1401C110.095 33.7935 110.788 33.3068 111.348 32.6801C111.908 32.0535 112.335 31.2935 112.628 30.4001C112.935 29.5068 113.088 28.5068 113.088 27.4001V10.0801H118.468V27.4001C118.468 29.1201 118.188 30.7135 117.628 32.1801C117.081 33.6335 116.288 34.8935 115.248 35.9601C114.221 37.0135 112.968 37.8401 111.488 38.4401C110.008 39.0268 108.341 39.3201 106.488 39.3201C104.621 39.3201 102.948 39.0268 101.468 38.4401C99.988 37.8401 98.728 37.0135 97.688 35.9601C96.6613 34.8935 95.868 33.6335 95.308 32.1801C94.7613 30.7135 94.488 29.1201 94.488 27.4001V10.0801H99.868V27.3801C99.868 28.4868 100.015 29.4868 100.308 30.3801C100.615 31.2735 101.048 32.0401 101.608 32.6801C102.181 33.3068 102.875 33.7935 103.688 34.1401C104.515 34.4868 105.448 34.6601 106.488 34.6601ZM136.475 23.8401C137.489 23.8401 138.369 23.7135 139.115 23.4601C139.875 23.2068 140.495 22.8601 140.975 22.4201C141.469 21.9668 141.835 21.4335 142.075 20.8201C142.315 20.2068 142.435 19.5335 142.435 18.8001C142.435 17.3335 141.949 16.2068 140.975 15.4201C140.015 14.6335 138.542 14.2401 136.555 14.2401H133.115V23.8401H136.475ZM150.315 39.0001H145.455C144.535 39.0001 143.869 38.6401 143.455 37.9201L137.375 28.6601C137.149 28.3135 136.895 28.0668 136.615 27.9201C136.349 27.7735 135.949 27.7001 135.415 27.7001H133.115V39.0001H127.735V10.0801H136.555C138.515 10.0801 140.195 10.2868 141.595 10.7001C143.009 11.1001 144.162 11.6668 145.055 12.4001C145.962 13.1335 146.629 14.0135 147.055 15.0401C147.482 16.0535 147.695 17.1735 147.695 18.4001C147.695 19.3735 147.549 20.2935 147.255 21.1601C146.975 22.0268 146.562 22.8135 146.015 23.5201C145.482 24.2268 144.815 24.8468 144.015 25.3801C143.229 25.9135 142.329 26.3335 141.315 26.6401C141.662 26.8401 141.982 27.0801 142.275 27.3601C142.569 27.6268 142.835 27.9468 143.075 28.3201L150.315 39.0001ZM167.73 27.8001V39.0001H162.37V27.8001L151.83 10.0801H156.57C157.037 10.0801 157.404 10.1935 157.67 10.4201C157.95 10.6468 158.184 10.9335 158.37 11.2801L163.65 20.9401C163.957 21.5135 164.224 22.0535 164.45 22.5601C164.69 23.0668 164.904 23.5735 165.09 24.0801C165.264 23.5735 165.464 23.0668 165.69 22.5601C165.917 22.0535 166.177 21.5135 166.47 20.9401L171.73 11.2801C171.877 10.9868 172.097 10.7135 172.39 10.4601C172.684 10.2068 173.057 10.0801 173.51 10.0801H178.27L167.73 27.8001ZM196.72 28.0801L193.2 18.4601C193.027 18.0335 192.847 17.5268 192.66 16.9401C192.474 16.3535 192.287 15.7201 192.1 15.0401C191.927 15.7201 191.747 16.3601 191.56 16.9601C191.374 17.5468 191.194 18.0601 191.02 18.5001L187.52 28.0801H196.72ZM206.22 39.0001H202.06C201.594 39.0001 201.214 38.8868 200.92 38.6601C200.627 38.4201 200.407 38.1268 200.26 37.7801L198.1 31.8801H186.12L183.96 37.7801C183.854 38.0868 183.647 38.3668 183.34 38.6201C183.034 38.8735 182.654 39.0001 182.2 39.0001H178L189.38 10.0801H194.86L206.22 39.0001Z" fill="white"/>
</svg>
